<svg width="60" height="60" viewBox="0 0 60 60" fill="none" xmlns="http://www.w3.org/2000/svg">
<path d="M35.787 47.3742V40.9688H32.7799V47.3602C32.2526 47.7914 31.9174 48.4477 31.9174 49.1813C31.9174 49.9172 32.2549 50.5711 32.7799 51.0047C33.1854 51.3375 33.7081 51.5391 34.2753 51.5391C34.8495 51.5391 35.3768 51.3328 35.787 50.9883C36.3026 50.557 36.6331 49.9078 36.6331 49.1813C36.6331 48.4547 36.3026 47.8055 35.787 47.3742Z" fill="#5C6878"/>
<path d="M49.6948 7.96875H9.70806C8.87837 7.96875 8.20337 8.64141 8.20337 9.47344V17.8031C8.20337 18.6352 8.87837 19.3078 9.70806 19.3078H21.1432C21.4784 20.4961 22.4206 21.4266 23.6159 21.7406C23.8995 21.8156 24.1971 21.8555 24.5042 21.8555C25.2987 21.8555 26.037 21.5883 26.6252 21.1336C27.4573 20.4961 27.994 19.493 27.994 18.3656C27.994 16.4391 26.426 14.8711 24.5018 14.8711C23.3487 14.8711 22.3245 15.4336 21.6893 16.2984H11.2104V10.9758H48.1901V16.3008H34.2799C33.4502 16.3008 32.7776 16.9734 32.7776 17.8031V27.6844H35.7846V19.3078H49.6924C50.5245 19.3078 51.1971 18.6352 51.1971 17.8031V9.47344C51.1995 8.64141 50.5268 7.96875 49.6948 7.96875ZM24.5042 16.6805C25.4346 16.6805 26.1893 17.4375 26.1893 18.3656C26.1893 19.2938 25.4323 20.0508 24.5042 20.0508C24.1784 20.0508 23.8737 19.957 23.6159 19.7977C23.4143 19.6711 23.2409 19.5047 23.1096 19.3078C22.9268 19.0383 22.8213 18.7148 22.8213 18.3656C22.819 17.4375 23.5737 16.6805 24.5042 16.6805Z" fill="#5C6878"/>
<path d="M12.6191 31.5023V37.3406C12.6191 37.5375 12.5605 37.6664 12.4457 37.7273C12.3308 37.7883 12.1597 37.8187 11.9371 37.8187C11.7191 37.8187 11.5527 37.7883 11.4379 37.7273C11.323 37.6664 11.2644 37.5375 11.2644 37.3406V31.5023H8.20349C8.04177 31.5023 7.93396 31.4554 7.88239 31.364C7.83083 31.2726 7.80505 31.1344 7.80505 30.9515C7.80505 30.7687 7.83083 30.6304 7.88239 30.539C7.93396 30.4476 8.03942 30.4008 8.20349 30.4008H15.6918C15.8535 30.4008 15.9613 30.4476 16.0129 30.539C16.0644 30.6304 16.0902 30.7687 16.0902 30.9515C16.0902 31.1344 16.0644 31.2726 16.0129 31.364C15.9613 31.4554 15.8558 31.5023 15.6918 31.5023H12.6191Z" fill="#5C6878"/>
<path d="M17.0746 35.4914V36.0094C17.0746 36.2133 17.2035 36.3867 17.4613 36.5343C17.7191 36.6797 18.1316 36.7523 18.7011 36.7523H19.8707C20.0277 36.7523 20.1261 36.7945 20.1707 36.8789C20.2152 36.9633 20.2363 37.0898 20.2363 37.2609C20.2363 37.4297 20.2152 37.5586 20.1707 37.6476C20.1261 37.7367 20.0254 37.7789 19.8707 37.7789H18.659C16.7394 37.7789 15.7808 37.1883 15.7808 36.0094V33.8015C15.7808 32.6226 16.7394 32.032 18.659 32.032H21.0097C22.0269 32.032 22.7605 32.1773 23.2129 32.4703C23.6629 32.7609 23.8902 33.2062 23.8902 33.8039V34.9734C23.8902 35.1703 23.8527 35.3062 23.7777 35.3812C23.7027 35.4562 23.5363 35.4937 23.2785 35.4937H17.0746V35.4914ZM17.0746 34.4836H22.5988V33.8015C22.5988 33.5648 22.4722 33.382 22.2168 33.2531C21.9636 33.1242 21.5465 33.0609 20.9699 33.0609H18.7011C18.1316 33.0609 17.7168 33.1312 17.4613 33.2742C17.2035 33.4172 17.0746 33.5929 17.0746 33.8039V34.4836Z" fill="#5C6878"/>
<path d="M28.7535 37.8211C28.5777 37.8211 28.4324 37.8 28.3222 37.7554C28.2121 37.7109 28.116 37.6429 28.0433 37.5469L24.0449 32.5922C23.984 32.5242 23.9535 32.4539 23.9535 32.3789C23.9535 32.264 24.0285 32.1703 24.1761 32.1C24.3261 32.0297 24.5043 31.9922 24.7152 31.9922C24.8301 31.9922 24.9472 32.0086 25.0668 32.039C25.1863 32.0695 25.2824 32.1328 25.3574 32.2265L28.7652 36.4992L32.1824 32.2148C32.2504 32.1258 32.3394 32.0672 32.4519 32.0367C32.5644 32.0062 32.6769 31.9898 32.7918 31.9898C32.9816 31.9898 33.1504 32.025 33.2957 32.0906C33.441 32.1586 33.5136 32.25 33.5136 32.3648C33.5136 32.4328 33.4832 32.5078 33.4222 32.5898L29.466 37.5445C29.391 37.6406 29.2972 37.7086 29.1871 37.7531C29.0746 37.7976 28.9293 37.8211 28.7535 37.8211Z" fill="#5C6878"/>
<path d="M38.7636 37.8211C38.5879 37.8211 38.4426 37.8 38.3324 37.7554C38.2222 37.7109 38.1261 37.6429 38.0535 37.5469L34.0551 32.5922C33.9941 32.5242 33.9636 32.4539 33.9636 32.3789C33.9636 32.264 34.0386 32.1703 34.1863 32.1C34.3363 32.0297 34.5144 31.9922 34.7254 31.9922C34.8402 31.9922 34.9574 32.0086 35.0769 32.039C35.1965 32.0695 35.2925 32.1328 35.3675 32.2265L38.7754 36.4992L42.1902 32.2148C42.2582 32.1258 42.3472 32.0672 42.4597 32.0367C42.5722 32.0062 42.6847 31.9898 42.7996 31.9898C42.9894 31.9898 43.1582 32.025 43.3035 32.0906C43.4488 32.1586 43.5215 32.25 43.5215 32.3648C43.5215 32.4328 43.491 32.5078 43.4301 32.5898L39.4738 37.5445C39.3988 37.6406 39.3051 37.7086 39.1949 37.7531C39.0824 37.7976 38.9394 37.8211 38.7636 37.8211Z" fill="#5C6878"/>
<path d="M43.6668 33.8015C43.6668 32.6226 44.6254 32.032 46.5449 32.032H48.7621C50.6816 32.032 51.6402 32.6226 51.6402 33.8015V36.0094C51.6402 37.1883 50.6816 37.7789 48.7621 37.7789H46.5449C44.6254 37.7789 43.6668 37.1883 43.6668 36.0094V33.8015ZM50.3488 33.8015C50.3488 33.5906 50.2199 33.4148 49.9621 33.2718C49.7043 33.1289 49.2918 33.0586 48.7199 33.0586H46.5847C46.0152 33.0586 45.6004 33.1289 45.3449 33.2718C45.0871 33.4148 44.9582 33.5906 44.9582 33.8015V36.0094C44.9582 36.2133 45.0871 36.3867 45.3449 36.5343C45.6027 36.6797 46.0152 36.7523 46.5847 36.7523H48.7199C49.2894 36.7523 49.7043 36.6797 49.9621 36.5343C50.2199 36.389 50.3488 36.2133 50.3488 36.0094V33.8015Z" fill="#5C6878"/>
</svg>
