<svg width="24" height="24" viewBox="0 0 24 24" fill="none" xmlns="http://www.w3.org/2000/svg">
    <path fill-rule="evenodd" clip-rule="evenodd" d="M17 8h2.5c.31 0 .61.15.8.4l2.3 3.07c.26.35.4.77.4 1.2V16c0 .55-.45 1-1 1h-1c0 1.66-1.34 3-3 3s-3-1.34-3-3H9c0 1.66-1.34 3-3 3s-3-1.34-3-3c-1.1 0-2-.9-2-2V6c0-1.1.9-2 2-2h12c1.1 0 2 .9 2 2v2zM5 17c0 .55.45 1 1 1s1-.45 1-1-.45-1-1-1-1 .45-1 1zm16.46-5L19.5 9.5H17V12h4.46zM17 17c0 .55.45 1 1 1s1-.45 1-1-.45-1-1-1-1 .45-1 1zM8 6h2v3h3v2h-3v3H8v-3H5V9h3V6z" />
</svg>
