<svg width="402" height="267" viewBox="0 0 402 267" fill="none" xmlns="http://www.w3.org/2000/svg">
    <path d="M257.803 153.661c-13.777-24.22-40.056-42.818-67.875-41.026a128.322 128.322 0 0 1 33.78 81.407c.457 11.676-.252 24.709 7.505 33.452 4.826 5.44 12.203 8.074 19.457 8.627 7.254.552 14.506-.757 21.662-2.061l1.736.532c.661-27.852-2.489-56.711-16.265-80.931z" fill="#F0F0F0"/>
    <path d="M189.886 113.218c20.572 9.897 38.113 26.427 48.881 46.586 2.328 4.359 4.31 8.982 5.174 13.871.865 4.891.261 9.547-1.41 14.192-1.528 4.247-3.583 8.414-4.052 12.958-.494 4.79 1.269 9.268 4.444 12.822 3.883 4.349 9.099 7.044 14.291 9.502 5.764 2.729 11.796 5.473 15.879 10.567.494.617 1.424-.186.93-.802-7.104-8.863-19.264-10.529-27.696-17.668-3.935-3.331-6.889-7.868-6.703-13.183.163-4.649 2.279-8.948 3.863-13.234 1.664-4.501 2.494-9.027 1.897-13.826-.61-4.908-2.416-9.619-4.622-14.018-4.976-9.92-11.785-19.028-19.586-26.901a111.744 111.744 0 0 0-30.892-22.028c-.71-.342-1.104.822-.398 1.162z" fill="#fff"/>
    <path d="M235.612 153.067a16.453 16.453 0 0 0 4.971-20.728c-.36-.704-1.471-.178-1.111.526a15.234 15.234 0 0 1-4.662 19.272c-.641.464.166 1.391.802.93zM243.589 185.816a31.752 31.752 0 0 1-20.099-11.45c-.497-.616-1.426.187-.93.802a33.023 33.023 0 0 0 20.939 11.872c.785.112.87-1.113.09-1.224zM211.605 126.546a9.328 9.328 0 0 1-8.333 2.969c-.783-.122-.867 1.103-.09 1.224a10.455 10.455 0 0 0 9.225-3.264.633.633 0 0 0 .064-.866.62.62 0 0 0-.866-.063z" fill="#fff"/>
    <path d="M134.577 189.041c.487.09.973.18 1.464.28a122.861 122.861 0 0 1 19.197 5.303c.485.169.975.348 1.455.53a129.448 129.448 0 0 1 40.709 24.76 125.682 125.682 0 0 1 13.186 13.809c5.576 6.809 11.081 14.636 18.368 19.076.755.472 1.539.896 2.347 1.271l41.981-17.403c.075-.087.155-.165.231-.253l1.708-.618c-.19-.269-.394-.543-.584-.812-.11-.157-.229-.309-.339-.466-.076-.103-.153-.205-.216-.303a1.958 1.958 0 0 0-.072-.093c-.063-.098-.132-.181-.191-.269a398.015 398.015 0 0 0-3.436-4.601c-.004-.009-.004-.009-.017-.015-8.854-11.622-18.756-22.607-30.012-31.741-.339-.274-.681-.559-1.039-.825a119.977 119.977 0 0 0-16.213-10.961 105.977 105.977 0 0 0-9.618-4.753 88.213 88.213 0 0 0-26.715-6.81c-18.354-1.703-37.049 2.479-51.127 14.003-.36.295-.711.586-1.067.891z" fill="#F0F0F0"/>
    <path d="M134.893 189.535c22.387-4.476 46.351-1.833 67.092 7.784 4.485 2.079 8.853 4.578 12.488 7.961 3.637 3.385 5.96 7.466 7.423 12.181 1.339 4.31 2.208 8.874 4.571 12.784 2.491 4.121 6.597 6.636 11.273 7.564 5.721 1.135 11.508.149 17.135-1.013 6.247-1.289 12.715-2.727 19.044-1.117.767.195 1.025-1.005.259-1.2-11.011-2.802-21.724 3.185-32.757 2.558-5.149-.292-10.24-2.137-13.293-6.493-2.671-3.81-3.571-8.515-4.888-12.891-1.384-4.595-3.447-8.707-6.815-12.18-3.444-3.552-7.724-6.227-12.135-8.412-9.949-4.927-20.873-8.101-31.844-9.693a111.791 111.791 0 0 0-37.936.999c-.773.155-.386 1.321.383 1.168z" fill="#fff"/>
    <path d="M195.409 193.837a16.451 16.451 0 0 0-.668-11.334 16.465 16.465 0 0 0-7.851-8.207c-.711-.345-1.281.743-.569 1.089a15.238 15.238 0 0 1 7.887 18.193c-.232.756.97 1.01 1.201.259zM221.506 215.186a31.768 31.768 0 0 1-22.946 2.952c-.768-.192-1.026 1.008-.259 1.2a33.04 33.04 0 0 0 23.871-3.12c.694-.382.024-1.412-.666-1.032zM160.262 187.108a9.311 9.311 0 0 1-4.864 7.385c-.699.373-.028 1.402.666 1.032a10.444 10.444 0 0 0 5.399-8.158.632.632 0 0 0-.471-.73.618.618 0 0 0-.73.471z" fill="#fff"/>
    <path d="M214.548 217.753c5.88-28.411 13.229-37.884 13.229-37.884l2.807-2.175 3.377-2.622-.017-.337.801-.272.188-.146.309-.236.049.053.105.108 15.278-5.19 19.383-6.58 8.976-11.66a15.526 15.526 0 0 1 12.419-6.054l28.665.212a15.53 15.53 0 0 1 10.442 4.14l18.842 17.466 29.358 14.013.049-.049.309.22 4.536 2.168-.187.973 2.807 2.025s7.349 8.814 13.229 35.25c1.495 6.726 2.232 21.156 2.497 38.936a6.774 6.774 0 0 1-1.952 4.864 6.787 6.787 0 0 1-4.836 2.024H218.832c-.9 0-1.79-.179-2.62-.527a6.779 6.779 0 0 1-3.679-3.728 6.784 6.784 0 0 1-.489-2.626c.259-19.348.995-35.072 2.504-42.366z" fill="#3F3D56"/>
    <path d="M194.429 24.777a23.01 23.01 0 0 1 16.266 6.733 22.982 22.982 0 0 1 0 32.512 23.01 23.01 0 0 1-16.266 6.733H23.003a23.01 23.01 0 0 1-16.265-6.733 22.982 22.982 0 0 1 0-32.512 23.01 23.01 0 0 1 16.265-6.733H194.43z" fill="#E5E5E5"/>
    <path d="M194.429 29.43c4.866 0 9.533 1.931 12.974 5.37a18.33 18.33 0 0 1 0 25.932 18.354 18.354 0 0 1-12.974 5.37H23.003a18.353 18.353 0 0 1-12.973-5.37 18.331 18.331 0 0 1 0-25.932 18.353 18.353 0 0 1 12.973-5.37H194.43z" fill="#fff"/>
    <path d="M301.283 133.996c-20.741 0-37.554-16.804-37.554-37.532 0-20.729 16.813-37.532 37.554-37.532 20.74 0 37.554 16.803 37.554 37.532 0 20.728-16.814 37.532-37.554 37.532z" fill="#9E616A"/>
    <path d="m310.89 132.158.48-1.063c-.062.002-.123.011-.184.013l-.296 1.05zM339.881 60.638c-1.899-1.514-4.119-2.907-6.547-2.829-2.429.078-4.891 2.27-4.388 4.646a38.59 38.59 0 0 0-20.053-17.147 38.614 38.614 0 0 0-26.39-.258c-6.036 2.129-11.954 6.386-13.341 12.63-.356 1.604-.432 3.361-1.434 4.663-1.262 1.641-3.678 2.013-5.668 1.435a13.628 13.628 0 0 0-.059-.017 1.777 1.777 0 0 0-1.922.525c-.23.27-.375.602-.415.955-.039.352.028.709.193 1.023l1.708 3.183c-2.153.48-4.39.432-6.52-.139a1.776 1.776 0 0 0-1.915.716 1.777 1.777 0 0 0 .032 2.042c5.631 7.726 15.039 12.716 24.639 12.657 6.824-.041 13.718-2.392 20.358-.823a17.665 17.665 0 0 1 11.894 24.81c2.04-2.231 5.984-1.703 8.071.484 2.086 2.186 2.627 5.45 2.416 8.464-.321 4.61-2.129 8.955-4.034 13.183 15.975-.503 31.085-11.703 36.171-26.85 5.107-15.212-.245-33.347-12.796-43.353z" fill="#2F2E41"/>
    <path opacity=".2" d="m365.037 209.175-10.533 57.275-6.32.55 16.853-57.825zM249.013 204.856l10.533 61.553 6.32.591-16.853-62.144z" fill="#000"/>
    <path d="M156.563 58.73h34.108a.821.821 0 1 0 0-1.642h-34.108a.823.823 0 0 0-.577 1.4c.153.154.361.24.577.242zM113.296 59.004h34.107a.82.82 0 0 0 .827-.821.814.814 0 0 0-.242-.583.818.818 0 0 0-.585-.238h-34.107a.823.823 0 0 0-.585 1.404.818.818 0 0 0 .585.238zM70.029 59.278h34.107a.824.824 0 0 0 .816-.821.824.824 0 0 0-.816-.821H70.029a.82.82 0 1 0 0 1.642zM26.761 59.551H60.87a.822.822 0 0 0 0-1.642H26.76a.822.822 0 0 0 0 1.642zM173.692 51.174a6.337 6.337 0 0 1-6.339-6.335 6.337 6.337 0 0 1 6.339-6.336 6.337 6.337 0 0 1 6.339 6.336 6.337 6.337 0 0 1-6.339 6.335zM130.163 51.174a6.337 6.337 0 0 1-6.339-6.335 6.337 6.337 0 0 1 6.339-6.336 6.337 6.337 0 0 1 6.339 6.336 6.337 6.337 0 0 1-6.339 6.335zM86.635 51.174a6.337 6.337 0 0 1-6.34-6.335 6.337 6.337 0 0 1 6.34-6.336 6.337 6.337 0 0 1 6.339 6.336 6.337 6.337 0 0 1-6.34 6.335zM43.106 51.174a6.337 6.337 0 0 1-6.339-6.335 6.337 6.337 0 0 1 6.34-6.336 6.337 6.337 0 0 1 6.338 6.336 6.337 6.337 0 0 1-6.339 6.335z" fill="#3B8160"/>
</svg>
