<svg width="14" height="14" viewBox="0 0 14 14" fill="none" xmlns="http://www.w3.org/2000/svg">
    <path d="M12.444 12.444H7a.78.78 0 0 0-.778.778c0 .428.35.778.778.778h5.444C13.3 14 14 13.3 14 12.444V1.556C14 .7 13.3 0 12.444 0H7a.78.78 0 0 0-.778.778c0 .428.35.778.778.778h5.444v10.888z" fill="#5C6878"/>
    <path d="M4.109 10.027a.765.765 0 0 0 0-1.088L2.63 7.46h7.155a.78.78 0 0 0 .778-.778.78.78 0 0 0-.778-.778H2.631l1.478-1.477a.765.765 0 0 0 0-1.09.765.765 0 0 0-1.09 0L.228 6.132a.775.775 0 0 0 0 1.096l2.793 2.8a.765.765 0 0 0 1.089 0z" fill="#5C6878"/>
</svg>
