<svg width="24" height="24" viewBox="0 0 24 24" fill="none" xmlns="http://www.w3.org/2000/svg">
<rect x="11" width="2" height="6" rx="1" fill="white"/>
<rect opacity="0.4998" x="11" y="18" width="2" height="6" rx="1" fill="white"/>
<rect opacity="0.0833" x="17.1338" y="1.10767" width="2" height="6" rx="1" transform="rotate(30 17.1338 1.10767)" fill="white"/>
<rect opacity="0.5831" x="8.13379" y="16.696" width="2" height="6" rx="1" transform="rotate(30 8.13379 16.696)" fill="white"/>
<rect opacity="0.1666" x="21.8921" y="5.13403" width="2" height="6" rx="1" transform="rotate(60 21.8921 5.13403)" fill="white"/>
<rect opacity="0.6664" x="6.30371" y="14.134" width="2" height="6" rx="1" transform="rotate(60 6.30371 14.134)" fill="white"/>
<rect opacity="0.2499" x="24" y="11" width="2" height="6" rx="1" transform="rotate(90 24 11)" fill="white"/>
<rect opacity="0.7497" x="6" y="11" width="2" height="6" rx="1" transform="rotate(90 6 11)" fill="white"/>
<rect opacity="0.3332" x="22.8921" y="17.134" width="2" height="6" rx="1" transform="rotate(120 22.8921 17.134)" fill="white"/>
<rect opacity="0.833" x="7.30371" y="8.13403" width="2" height="6" rx="1" transform="rotate(120 7.30371 8.13403)" fill="white"/>
<rect opacity="0.4165" x="18.8657" y="21.8923" width="2" height="6" rx="1" transform="rotate(150 18.8657 21.8923)" fill="white"/>
<rect opacity="0.9163" x="9.86572" y="6.30396" width="2" height="6" rx="1" transform="rotate(150 9.86572 6.30396)" fill="white"/>
</svg>
