<svg width="281" height="281" viewBox="0 0 281 281" fill="none" xmlns="http://www.w3.org/2000/svg">
    <path d="M168.921 223.616v-30.235h-14.194v30.169a11.074 11.074 0 0 0-4.071 8.596c0 3.474 1.593 6.56 4.071 8.607a11.107 11.107 0 0 0 7.058 2.522c2.711 0 5.2-.973 7.136-2.6a11.096 11.096 0 0 0 3.993-8.529c0-3.43-1.559-6.494-3.993-8.53zM234.568 37.614H45.823a7.103 7.103 0 0 0-7.103 7.103v39.317a7.103 7.103 0 0 0 7.103 7.103h53.976c1.582 5.609 6.029 10.001 11.672 11.483 1.338.354 2.743.542 4.192.542a16.33 16.33 0 0 0 10.012-3.407c3.928-3.01 6.461-7.744 6.461-13.065 0-9.094-7.401-16.495-16.484-16.495-5.443 0-10.277 2.655-13.275 6.737H52.914V51.808h174.552v25.135h-65.659a7.091 7.091 0 0 0-7.091 7.091v46.642h14.194v-39.54h65.647a7.096 7.096 0 0 0 7.103-7.102V44.717a7.08 7.08 0 0 0-7.092-7.103zM115.663 78.735c4.392 0 7.955 3.574 7.955 7.955 0 4.38-3.574 7.954-7.955 7.954a7.958 7.958 0 0 1-4.192-1.195 7.941 7.941 0 0 1-2.39-2.312 7.882 7.882 0 0 1-1.361-4.447c-.011-4.381 3.551-7.955 7.943-7.955zM59.564 148.698v27.558c0 .929-.277 1.537-.819 1.825-.542.288-1.35.431-2.4.431-1.03 0-1.815-.143-2.357-.431-.542-.288-.819-.896-.819-1.825v-27.558H38.721c-.763 0-1.272-.222-1.515-.653-.244-.432-.365-1.084-.365-1.947s.121-1.516.365-1.947c.243-.432.74-.653 1.515-.653h35.346c.764 0 1.273.221 1.516.653.244.431.365 1.084.365 1.947s-.121 1.515-.365 1.947c-.243.431-.741.653-1.516.653H59.564zM80.595 167.527v2.445c0 .962.608 1.781 1.825 2.478 1.217.686 3.164 1.029 5.852 1.029h5.52c.742 0 1.207.199 1.417.597.21.398.31.996.31 1.803 0 .797-.1 1.405-.31 1.826-.21.42-.686.619-1.416.619h-5.72c-9.06 0-13.585-2.788-13.585-8.352V159.55c0-5.564 4.525-8.352 13.585-8.352H99.17c4.801 0 8.264.686 10.399 2.069 2.124 1.371 3.197 3.473 3.197 6.295v5.52c0 .929-.177 1.571-.531 1.925-.354.354-1.14.531-2.357.531H80.595v-.011zm0-4.757h26.075v-3.22c0-1.117-.597-1.98-1.803-2.588-1.195-.609-3.164-.907-5.886-.907H88.272c-2.688 0-4.646.331-5.852 1.006-1.217.675-1.825 1.505-1.825 2.501v3.208zM135.722 178.523c-.83 0-1.516-.099-2.036-.309a3.048 3.048 0 0 1-1.317-.985l-18.873-23.387c-.288-.321-.431-.653-.431-1.007 0-.542.354-.984 1.051-1.316.708-.332 1.548-.509 2.544-.509.542 0 1.095.077 1.66.221a2.505 2.505 0 0 1 1.371.885l16.086 20.168 16.13-20.223a2.3 2.3 0 0 1 1.272-.841 6.09 6.09 0 0 1 1.604-.221c.896 0 1.693.166 2.379.475.686.321 1.029.753 1.029 1.295 0 .321-.144.675-.432 1.062l-18.674 23.387a3.121 3.121 0 0 1-1.317.985c-.531.21-1.217.32-2.046.32zM182.972 178.523c-.83 0-1.516-.099-2.036-.309a3.045 3.045 0 0 1-1.316-.985l-18.874-23.387c-.288-.321-.431-.653-.431-1.007 0-.542.354-.984 1.051-1.316.708-.332 1.548-.509 2.544-.509.542 0 1.095.077 1.66.221a2.505 2.505 0 0 1 1.371.885l16.086 20.168 16.119-20.223a2.3 2.3 0 0 1 1.272-.841 6.09 6.09 0 0 1 1.604-.221c.896 0 1.693.166 2.379.475.686.321 1.029.753 1.029 1.295 0 .321-.144.675-.432 1.062l-18.674 23.387a3.121 3.121 0 0 1-1.317.985c-.531.21-1.206.32-2.035.32zM206.115 159.55c0-5.564 4.525-8.352 13.586-8.352h10.465c9.061 0 13.586 2.788 13.586 8.352v10.422c0 5.564-4.525 8.352-13.586 8.352h-10.465c-9.061 0-13.586-2.788-13.586-8.352V159.55zm31.541 0c0-.995-.608-1.825-1.825-2.5s-3.164-1.007-5.864-1.007h-10.078c-2.688 0-4.647.332-5.852 1.007-1.217.675-1.826 1.505-1.826 2.5v10.422c0 .962.609 1.781 1.826 2.478 1.216.686 3.164 1.029 5.852 1.029h10.078c2.689 0 4.647-.343 5.864-1.029 1.217-.686 1.825-1.516 1.825-2.478V159.55z" fill="#3B8160"/>
</svg>
