
<svg width="24" height="24" viewBox="0 0 24 24" fill="none" xmlns="http://www.w3.org/2000/svg">
<path fill-rule="evenodd" clip-rule="evenodd" d="M7.6818 8.7107L8.74524 7.64725C8.42751 7.19082 8.20393 6.66469 8.10149 6.09672H6.599V4.69086H8.10149C8.20389 4.12284 8.42751 3.59672 8.74519 3.14028L7.68175 2.07689L8.67584 1.0828L9.73928 2.14619C10.1957 1.82847 10.7218 1.60489 11.2899 1.5025V0H12.6957V1.5025C13.2637 1.60489 13.7899 1.82847 14.2463 2.14619L15.3097 1.0828L16.3038 2.07689L15.2404 3.14028C15.5581 3.59672 15.7817 4.12284 15.8841 4.69086H17.3866V6.09672H15.8841C15.7817 6.66469 15.5581 7.19082 15.2404 7.64725L16.3039 8.7107L15.3098 9.70479L14.2463 8.64134C13.7899 8.95902 13.2638 9.18265 12.6958 9.28499V10.7875H11.2899V9.28499C10.7219 9.18265 10.1958 8.95902 9.73933 8.64134L8.67588 9.70479L7.6818 8.7107ZM14.542 5.39374C14.542 3.98811 13.3984 2.84454 11.9928 2.84454C10.5872 2.84454 9.44358 3.98811 9.44358 5.39374C9.44358 6.79938 10.5872 7.94291 11.9928 7.94291C13.3984 7.94291 14.542 6.79938 14.542 5.39374ZM17.696 11.4083C18.9227 10.1817 20.9186 10.1817 22.1452 11.4083L23.4091 12.6723L14.9665 21.1148H8.70168L6.34016 24L0.59082 20.1303L4.31711 14.6504C5.01873 13.6186 6.18251 13.0026 7.43022 13.0026H16.1017L17.696 11.4083ZM8.03563 19.7089H14.3842L21.4209 12.6722L21.1511 12.4024C20.4727 11.724 19.3686 11.7239 18.6901 12.4024L14.0522 17.0404H10.4889V15.6346H13.4698L14.6959 14.4085H7.43026C6.64846 14.4085 5.91929 14.7945 5.47967 15.4409L2.54769 19.7527L6.06311 22.1188L8.03563 19.7089Z" />
</svg>
