<svg width="116" height="95" viewBox="0 0 116 95" fill="none" xmlns="http://www.w3.org/2000/svg">
    <path d="M61.464 12 99.57 78c1.54 2.667-.385 6-3.464 6h-76.21c-3.08 0-5.004-3.333-3.464-6l38.105-66c1.54-2.667 5.389-2.667 6.928 0z" fill="#FF8674" fill-opacity=".12" stroke="#DA3D25" stroke-width="6"/>
    <path d="M53.27 39.25A3 3 0 0 1 56.26 36h3.48a3 3 0 0 1 2.99 3.25l-1.5 18A3 3 0 0 1 58.24 60h-.48a3 3 0 0 1-2.99-2.75l-1.5-18z" fill="#DA3D25"/>
    <circle cx="58" cy="67" r="5" fill="#DA3D25"/>
</svg>
